<svg xmlns="http://www.w3.org/2000/svg" viewBox="0 0 1200 400" width="1200" height="400">
  <defs>
    <linearGradient id="bg" x1="0%" y1="0%" x2="100%" y2="100%">
      <stop offset="0%" style="stop-color:#0d1117;stop-opacity:1" />
      <stop offset="100%" style="stop-color:#161b22;stop-opacity:1" />
    </linearGradient>
    <linearGradient id="textGrad" x1="0%" y1="0%" x2="100%" y2="0%">
      <stop offset="0%" style="stop-color:#3776AB" />
      <stop offset="50%" style="stop-color:#FFD43B" />
      <stop offset="100%" style="stop-color:#3776AB" />
    </linearGradient>
    <filter id="glow">
      <feGaussianBlur stdDeviation="3" result="coloredBlur"/>
      <feMerge><feMergeNode in="coloredBlur"/><feMergeNode in="SourceGraphic"/></feMerge>
    </filter>
  </defs>
  <rect width="1200" height="400" fill="url(#bg)" rx="12"/>
  <g opacity="0.04" stroke="#4b97d1" stroke-width="1">
    <line x1="0" y1="80" x2="1200" y2="80"/>
    <line x1="0" y1="160" x2="1200" y2="160"/>
    <line x1="0" y1="240" x2="1200" y2="240"/>
    <line x1="0" y1="320" x2="1200" y2="320"/>
    <line x1="200" y1="0" x2="200" y2="400"/>
    <line x1="400" y1="0" x2="400" y2="400"/>
    <line x1="600" y1="0" x2="600" y2="400"/>
    <line x1="800" y1="0" x2="800" y2="400"/>
    <line x1="1000" y1="0" x2="1000" y2="400"/>
  </g>
  <g stroke="#3776AB" stroke-width="2" fill="none" opacity="0.5">
    <path d="M24,24 L24,56 M24,24 L56,24"/>
    <path d="M1176,24 L1176,56 M1176,24 L1144,24"/>
    <path d="M24,376 L24,344 M24,376 L56,376"/>
    <path d="M1176,376 L1176,344 M1176,376 L1144,376"/>
  </g>
  <text x="600" y="148" font-family="system-ui,sans-serif" font-size="74" font-weight="900" text-anchor="middle" fill="url(#textGrad)" filter="url(#glow)">Python in 30 Days</text>
  <text x="600" y="192" font-family="system-ui,sans-serif" font-size="22" font-weight="300" text-anchor="middle" fill="#8b949e" letter-spacing="5">FROM ZERO TO CONFIDENT DEVELOPER</text>
  <line x1="340" y1="218" x2="860" y2="218" stroke="#3776AB" stroke-width="1" opacity="0.4"/>
  <circle cx="600" cy="218" r="4" fill="#FFD43B"/>
  <text x="260" y="272" font-family="system-ui,sans-serif" font-size="40" font-weight="900" text-anchor="middle" fill="#FFD43B">30</text>
  <text x="260" y="298" font-family="system-ui,sans-serif" font-size="13" text-anchor="middle" fill="#8b949e" letter-spacing="3">LESSONS</text>
  <text x="460" y="272" font-family="system-ui,sans-serif" font-size="40" font-weight="900" text-anchor="middle" fill="#4b97d1">30</text>
  <text x="460" y="298" font-family="system-ui,sans-serif" font-size="13" text-anchor="middle" fill="#8b949e" letter-spacing="3">PROJECTS</text>
  <line x1="560" y1="248" x2="560" y2="300" stroke="#30363d" stroke-width="1"/>
  <line x1="660" y1="248" x2="660" y2="300" stroke="#30363d" stroke-width="1"/>
  <text x="610" y="272" font-family="system-ui,sans-serif" font-size="40" font-weight="900" text-anchor="middle" fill="#FFD43B">300+</text>
  <text x="610" y="298" font-family="system-ui,sans-serif" font-size="13" text-anchor="middle" fill="#8b949e" letter-spacing="3">EXAMPLES</text>
  <text x="820" y="268" font-family="system-ui,sans-serif" font-size="36" font-weight="900" text-anchor="middle" fill="#4b97d1">0</text>
  <text x="856" y="268" font-family="system-ui,sans-serif" font-size="18" font-weight="300" fill="#8b949e">to</text>
  <text x="900" y="268" font-family="system-ui,sans-serif" font-size="32" font-weight="900" fill="#FFD43B">PRO</text>
  <text x="858" y="298" font-family="system-ui,sans-serif" font-size="13" text-anchor="middle" fill="#8b949e" letter-spacing="3">SKILL LEVEL</text>
  <text x="600" y="358" font-family="system-ui,sans-serif" font-size="14" text-anchor="middle" fill="#3776AB" letter-spacing="2" opacity="0.9">Open Source  ·  Community Driven  ·  Beginner Friendly  ·  PEP 8 Compliant</text>
</svg>
